<svg xmlns="http://www.w3.org/2000/svg" xml:space="preserve" id="svg3241" x="0px" y="0px" version="1.1" viewBox="0 0 844.9 139.3"><style>.st0{fill:#2f2c4d}</style><path d="m178.4 73.2 101.1 66.1h-76.7c-3.3 0-6.5-.9-9.3-2.6l-64.1-38.6-13.4-8c-4-2.4-8.7-3.7-13.4-3.7H68.9v52.9H0V0h68.9v52.9h33.7c4.7 0 9.4-1.3 13.4-3.7l13.4-8.1 64.1-38.6c2.8-1.7 6-2.6 9.3-2.6h76.7l-99.8 65.2-25.2-7.6 18.4 12.1z" class="st0"/><path d="M548.8 33.7v6h-69.3c-.9 0-1.7-.7-1.7-1.7v-2.1c0-11.1-11.4-12.1-18.1-12.1h-97.5c-11.5 0-17.8 8-17.8 17.8v55.6c0 9.8 8 17.8 17.8 17.8h99.5c8.5 0 18.1-2.8 18.1-12.1V86.8c0-1.2-.6-2.3-3.3-2.3L417 84c-2.7 0-4.3-.8-6.5-2.3l-31-20.7c-1.1-.7-.6-2.4.7-2.4H532c13.2 0 16.8 5.7 16.8 12.8v26.8c0 26-14.3 41.2-43.2 41.2H324.4c-25.4 0-49-16.3-49-45V46c0-31.6 22.6-46 48-46h181.7c23.3 0 43.7 15.1 43.7 33.7M844.9 0v139.3h-68.5V37.2L742 80.5l-7 8.7h-45.6l-5.5-6.2-40-45.4v101.7h-68.5V0h84l46.7 45.5 6.5 6.4 21.6 21-17-26 41.2-44.6 2.1-2.3z" class="st0"/></svg>